<svg xmlns="http://www.w3.org/2000/svg" version="1.1" xmlns:xlink="http://www.w3.org/1999/xlink" xmlns:svgjs="http://svgjs.dev/svgjs" width="1000" height="750" viewBox="0 0 1000 750"><rect width="1000" height="750" fill="#ffffff"></rect><g transform="matrix(0.5675413022351797,0,0,0.5675413022351797,216.35987009625575,83.23687385666474)"><svg viewBox="0 0 240 247" data-background-color="#ffffff" preserveAspectRatio="xMidYMid meet" height="1029" width="1000" xmlns="http://www.w3.org/2000/svg" xmlns:xlink="http://www.w3.org/1999/xlink"><g id="tight-bounds" transform="matrix(1,0,0,1,-0.05519438180019165,-0.09997365579206985)"><svg viewBox="0 0 240.11038876360038 247.2" height="247.2" width="240.11038876360038"><g><svg viewBox="0 0 240.11038876360038 247.2" height="247.2" width="240.11038876360038"><g><svg viewBox="0 0 240.11038876360038 247.2" height="247.2" width="240.11038876360038"><g><svg viewBox="0 0 240.11038876360038 247.2" height="247.2" width="240.11038876360038"><g><svg viewBox="0 0 240.11038876360038 247.2" height="247.2" width="240.11038876360038"><path d="M239.548 53.02C238.419 27.36 235.202 20.227 235.202 20.227 225.325-6.202 212.999-0.506 201.925 3.292 182.374 3.446 162.902 9.091 143.396 12.119 102.454 12.581 61.162 4.986 20.424 23.717 16.597 29.464-3.97 24.846 0.681 56.304 1.9 69.39 6.347 83.913 6.212 95.922 6.821 98.026 7.668 93.202 8.029 96.23 9.293 104.39 11.359 100.541 13.052 105.365 10.693 118.246 12.386 128.971 14.001 140.21 11.156 143.135 7.51 141.749 5.873 151.449 5.704 158.479 4.79 157.145 3.785 156.837 3.051 156.632 1.572 157.402 1.821 159.608 2.667 167.152-0.967 171.514 1.313 178.904-0.256 186.91 2.396 193.838 2.035 202.511 1.99 204.255 2.238 205.744 2.634 206.154 4.383 208.361 1.832 212.672 2.103 217.342 20.051 249.262 39.523 227.195 57.911 241.872 62.686 231.608 59.097 245.516 61.004 243.36 62.494 240.846 63.578 251.263 65.26 245.362 65.52 243.668 65.124 239.665 66.05 240.435 66.535 240.846 66.964 240.743 67.032 238.382 67.134 234.841 66.242 237.048 66.005 235.201 68.567 225.861 67.935 248.081 70.34 247.158 70.227 244.438 69.527 240.538 70.96 241.051 72.383 237.151 72.428 233.918 73.692 242.693 73.737 244.592 73.963 245.926 74.324 246.85 78.275 237.305 82.203 250.237 86.346 245.926 88.886 241.205 91.324 248.492 93.898 246.696 94.801 245.259 95.715 242.693 96.584 247.004 107.229 247.928 118.574 244.079 128.665 247.158 155.632 241.41 184.451 249.518 212.886 241.923 219.591 238.998 226.556 234.841 233.091 231.506 233.091 231.506 238.386 222.371 238.386 181.316S239.514 145.393 239.684 112.703C239.853 80.013 240.643 78.679 239.514 53.02Z" opacity="1" fill="#ed2647" data-fill-palette-color="tertiary"></path><g transform="matrix(1,0,0,1,55.76832,26.230666666666668)"><svg width="128.57374876360038" viewBox="0.9000000357627869 -33.70000076293945 22.25 33.70000076293945" height="194.73866666666666" data-palette-color="#ffffff"><path d="M23.15-33.7L23.15-30.15 14.05-30.15 14.05 0 10 0 10-30.15 0.9-30.15 0.9-33.7 23.15-33.7Z" opacity="1" transform="matrix(1,0,0,1,0,0)" fill="#ffffff" class="undefined-text-0" data-fill-palette-color="quaternary" id="text-0"></path></svg></g></svg></g></svg></g></svg></g><g></g></svg></g><defs></defs></svg><rect width="240.11038876360038" height="247.2" fill="none" stroke="none" visibility="hidden"></rect></g></svg></g></svg>